{"title":"Formula 1 2007 Round 1 Australia Race","uid":9216718,"size":1459729025,"categoryP":"video","categoryS":"tv_shows","magnet":"?xt=urn:btih:04bad1e1aceb69c5e7dab86834b0d29e5266962a&amp;dn=Formula+1+2007+Round+1+Australia+Race&amp;tr=udp%3A%2F%2Ftracker.openbittorrent.com%3A80&amp;tr=udp%3A%2F%2Fopen.demonii.com%3A1337&amp;tr=udp%3A%2F%2Ftracker.coppersurfer.tk%3A6969&amp;tr=udp%3A%2F%2Fexodus.desync.com%3A6969","seeders":1,"leechers":2,"uploader":"totocon","files":1,"time":1384870974,"description":"ITV broadcast\n\nFormat                                   : Matroska\nFormat version                           : Version 4 / Version 2\nFile size                                : 1.36 GiB\nDuration                                 : 2h 1mn\nOverall bit rate                         : 1 604 Kbps\nEncoded date                             : UTC 2013-10-27 11:09:46\nWriting application                      : mkvmerge v6.3.0 ('You can't stop me!') built on Jun 27 2013 22:06:07\nWriting library                          : libebml v1.3.0 + libmatroska v1.4.0\n\nVideo\nID                                       : 1\nFormat                                   : MPEG-4 Visual\nFormat profile                           : Advanced Simple@L5\nFormat settings, BVOP                    : Yes\nFormat settings, QPel                    : No\nFormat settings, GMC                     : No warppoints\nFormat settings, Matrix                  : Default (H.263)\nCodec ID                                 : V_MS/VFW/FOURCC / XVID\nCodec ID/Hint                            : XviD\nDuration                                 : 2h 1mn\nBit rate                                 : 1 412 Kbps\nWidth                                    : 692 pixels\nHeight                                   : 404 pixels\nDisplay aspect ratio                     : 1.713\nFrame rate mode                          : Constant\nFrame rate                               : 25.000 fps\nColor space                              : YUV\nChroma subsampling                       : 4:2:0\nBit depth                                : 8 bits\nScan type                                : Progressive\nCompression mode                         : Lossy\nBits/(Pixel*Frame)                       : 0.202\nStream size                              : 1.20 GiB (88%)\nWriting library                          : XviD 1.2.0SMP (UTC 2006-01-08)\nDefault                                  : Yes\nForced                                   : No\n\nAudio\nID                                       : 2\nFormat                                   : MPEG Audio\nFormat version                           : Version 1\nFormat profile                           : Layer 3\nCodec ID                                 : A_MPEG/L3\nCodec ID/Hint                            : MP3\nDuration                                 : 2h 1mn\nBit rate mode                            : Constant\nBit rate                                 : 160 Kbps\nChannel(s)                               : 2 channels\nSampling rate                            : 48.0 KHz\nCompression mode                         : Lossy\nStream size                              : 139 MiB (10%)\nDefault                                  : Yes\nForced                                   : No\n\n","torrent":{"xt":"urn:btih:04bad1e1aceb69c5e7dab86834b0d29e5266962a","amp;dn":"Formula+1+2007+Round+1+Australia+Race","amp;tr":["udp%3A%2F%2Ftracker.openbittorrent.com%3A80","udp%3A%2F%2Fopen.demonii.com%3A1337","udp%3A%2F%2Ftracker.coppersurfer.tk%3A6969","udp%3A%2F%2Fexodus.desync.com%3A6969"],"infoHash":"04bad1e1aceb69c5e7dab86834b0d29e5266962a","infoHashBuffer":{"type":"Buffer","data":[4,186,209,225,172,235,105,197,231,218,184,104,52,176,210,158,82,102,150,42]},"announce":[],"urlList":[]}}